# xmcd
#
# Track frame offsets: 
#        150
#        14178
#        27218
#        42079
#        56247
#        74975
#        101118
#        114315
#        129495
#        156955
#        168220
#        188126
#        203462
#        216383
#        230073
#        241808
#        260114
#        278918
#        295548
#        308186
#
# Disc length: 4325 seconds
#
# Revision: 0
# Processed by: cddbd v1.4PL0 Copyright (c) Steve Scherf et al.
# Submitted via: ExactAudioCopy v0.90b4
#
DISCID=3110e314
DTITLE=Tony Whetstone - Handmade Piedmont Blues
DYEAR=2002
DGENRE=Blues
TTITLE0=Camptown Races
TTITLE1=The Franklin Crawl (instrumental)
TTITLE2=Darlene
TTITLE3=Roll Over These Blues
TTITLE4=Hot Water
TTITLE5=Got To Swing Your Axe
TTITLE6=Blues For Robert Johnson
TTITLE7=So Happy I Retire Today
TTITLE8=Just For You
TTITLE9=Freight Train
TTITLE10=I'll Fly Away
TTITLE11=Mama's Home (instrumental)
TTITLE12=Oh Well, Oh Well
TTITLE13=My Creole Belle
TTITLE14=Pallet On Your Floor
TTITLE15=So Happy I Retire Today (live)
TTITLE16=Small Town Blues
TTITLE17=The Right Gift
TTITLE18=Rudolph The Ragtime Reindeer
TTITLE19=Silent, Blue Night (instrumental)
EXTD=
EXTT0=
EXTT1=
EXTT2=
EXTT3=
EXTT4=
EXTT5=
EXTT6=
EXTT7=
EXTT8=
EXTT9=
EXTT10=
EXTT11=
EXTT12=
EXTT13=
EXTT14=
EXTT15=
EXTT16=
EXTT17=
EXTT18=
EXTT19=
PLAYORDER=
